{
  "accessors": [
    {
      "bufferView": 2,
      "componentType": 5126,
      "count": 47652,
      "max": [
        8.692999839782715,
        -3.621000051498413,
        4.501999855041504
      ],
      "min": [
        3.315999984741211,
        -7.392000198364258,
        -0.1120000034570694
      ],
      "type": "VEC3"
    },
    {
      "bufferView": 2,
      "byteOffset": 571824,
      "componentType": 5126,
      "count": 47652,
      "max": [
        0.9999426603317261,
        0.9999001622200012,
        0.999541163444519
      ],
      "min": [
        -1.0,
        -1.0,
        -1.0
      ],
      "type": "VEC3"
    },
    {
      "bufferView": 1,
      "componentType": 5126,
      "count": 47652,
      "max": [
        1.0,
        1.0
      ],
      "min": [
        0.0,
        0.0
      ],
      "type": "VEC2"
    },
    {
      "bufferView": 0,
      "componentType": 5125,
      "count": 116958,
      "type": "SCALAR"
    },
    {
      "bufferView": 2,
      "byteOffset": 1143648,
      "componentType": 5126,
      "count": 47356,
      "max": [
        12.583000183105469,
        -15.427000045776367,
        4.7210001945495605
      ],
      "min": [
        8.520999908447266,
        -20.385000228881836,
        -0.11900000274181366
      ],
      "type": "VEC3"
    },
    {
      "bufferView": 2,
      "byteOffset": 1711920,
      "componentType": 5126,
      "count": 47356,
      "max": [
        0.9999256134033203,
        1.0,
        0.9997813701629639
      ],
      "min": [
        -0.9999929666519165,
        -0.9999403953552246,
        -1.0
      ],
      "type": "VEC3"
    },
    {
      "bufferView": 1,
      "byteOffset": 381216,
      "componentType": 5126,
      "count": 47356,
      "max": [
        1.0,
        1.0
      ],
      "min": [
        0.0,
        0.0
      ],
      "type": "VEC2"
    },
    {
      "bufferView": 0,
      "byteOffset": 467832,
      "componentType": 5125,
      "count": 115878,
      "type": "SCALAR"
    },
    {
      "bufferView": 2,
      "byteOffset": 2280192,
      "componentType": 5126,
      "count": 48500,
      "max": [
        20.44099998474121,
        -15.119000434875488,
        6.672999858856201
      ],
      "min": [
        13.14900016784668,
        -22.457000732421875,
        -0.05000000074505806
      ],
      "type": "VEC3"
    },
    {
      "bufferView": 2,
      "byteOffset": 2862192,
      "componentType": 5126,
      "count": 48500,
      "max": [
        0.9999933838844299,
        0.999948263168335,
        1.0
      ],
      "min": [
        -0.9999999403953552,
        -0.9999549984931946,
        -1.0
      ],
      "type": "VEC3"
    },
    {
      "bufferView": 1,
      "byteOffset": 760064,
      "componentType": 5126,
      "count": 48500,
      "max": [
        1.0,
        1.0
      ],
      "min": [
        0.0,
        0.0
      ],
      "type": "VEC2"
    },
    {
      "bufferView": 0,
      "byteOffset": 931344,
      "componentType": 5125,
      "count": 117264,
      "type": "SCALAR"
    },
    {
      "bufferView": 2,
      "byteOffset": 3444192,
      "componentType": 5126,
      "count": 47660,
      "max": [
        27.524999618530273,
        -16.229000091552734,
        7.4770002365112305
      ],
      "min": [
        20.68899917602539,
        -23.30699920654297,
        -0.1860000044107437
      ],
      "type": "VEC3"
    },
    {
      "bufferView": 2,
      "byteOffset": 4016112,
      "componentType": 5126,
      "count": 47660,
      "max": [
        0.9999867677688599,
        1.0,
        0.9998867511749268
      ],
      "min": [
        -0.9999918937683105,
        -0.9999982714653015,
        -0.9999969005584717
      ],
      "type": "VEC3"
    },
    {
      "bufferView": 1,
      "byteOffset": 1148064,
      "componentType": 5126,
      "count": 47660,
      "max": [
        1.0,
        1.0
      ],
      "min": [
        0.0,
        0.0
      ],
      "type": "VEC2"
    },
    {
      "bufferView": 0,
      "byteOffset": 1400400,
      "componentType": 5125,
      "count": 117060,
      "type": "SCALAR"
    },
    {
      "bufferView": 2,
      "byteOffset": 4588032,
      "componentType": 5126,
      "count": 47599,
      "max": [
        8.22700023651123,
        -22.393999099731445,
        6.2170000076293945
      ],
      "min": [
        2.553999900817871,
        -28.802000045776367,
        -0.09300000220537186
      ],
      "type": "VEC3"
    },
    {
      "bufferView": 2,
      "byteOffset": 5159220,
      "componentType": 5126,
      "count": 47599,
      "max": [
        0.9999800324440002,
        0.9998722672462463,
        0.9995047450065613
      ],
      "min": [
        -1.0,
        -0.9999110698699951,
        -0.9999991655349731
      ],
      "type": "VEC3"
    },
    {
      "bufferView": 1,
      "byteOffset": 1529344,
      "componentType": 5126,
      "count": 47599,
      "max": [
        1.0,
        1.0
      ],
      "min": [
        0.0,
        0.0
      ],
      "type": "VEC2"
    },
    {
      "bufferView": 0,
      "byteOffset": 1868640,
      "componentType": 5125,
      "count": 116046,
      "type": "SCALAR"
    },
    {
      "bufferView": 2,
      "byteOffset": 5730408,
      "componentType": 5126,
      "count": 47789,
      "max": [
        13.206000328063965,
        -20.83799934387207,
        4.210999965667725
      ],
      "min": [
        7.959000110626221,
        -25.19700050354004,
        -0.06800000369548798
      ],
      "type": "VEC3"
    },
    {
      "bufferView": 2,
      "byteOffset": 6303876,
      "componentType": 5126,
      "count": 47789,
      "max": [
        0.9999999403953552,
        0.9999596476554871,
        0.999671459197998
      ],
      "min": [
        -0.9998037815093994,
        -0.9999999403953552,
        -1.0
      ],
      "type": "VEC3"
    },
    {
      "bufferView": 1,
      "byteOffset": 1910136,
      "componentType": 5126,
      "count": 47789,
      "max": [
        1.0,
        1.0
      ],
      "min": [
        0.0,
        0.0
      ],
      "type": "VEC2"
    },
    {
      "bufferView": 0,
      "byteOffset": 2332824,
      "componentType": 5125,
      "count": 115698,
      "type": "SCALAR"
    },
    {
      "bufferView": 2,
      "byteOffset": 6877344,
      "componentType": 5126,
      "count": 47578,
      "max": [
        21.68199920654297,
        -22.204999923706055,
        4.491000175476074
      ],
      "min": [
        16.399999618530273,
        -26.190000534057617,
        -0.11500000208616257
      ],
      "type": "VEC3"
    },
    {
      "bufferView": 2,
      "byteOffset": 7448280,
      "componentType": 5126,
      "count": 47578,
      "max": [
        1.0,
        0.9999942183494568,
        0.9996355772018433
      ],
      "min": [
        -0.9999997615814209,
        -0.9998506903648376,
        -1.0
      ],
      "type": "VEC3"
    },
    {
      "bufferView": 1,
      "byteOffset": 2292448,
      "componentType": 5126,
      "count": 47578,
      "max": [
        1.0,
        1.0
      ],
      "min": [
        0.0,
        0.0
      ],
      "type": "VEC2"
    },
    {
      "bufferView": 0,
      "byteOffset": 2795616,
      "componentType": 5125,
      "count": 116970,
      "type": "SCALAR"
    },
    {
      "bufferView": 2,
      "byteOffset": 8019216,
      "componentType": 5126,
      "count": 48616,
      "max": [
        27.562000274658203,
        -22.149999618530273,
        5.126999855041504
      ],
      "min": [
        22.858999252319336,
        -28.757999420166016,
        -0.10199999809265137
      ],
      "type": "VEC3"
    },
    {
      "bufferView": 2,
      "byteOffset": 8602608,
      "componentType": 5126,
      "count": 48616,
      "max": [
        0.9999905228614807,
        0.9999386668205261,
        0.9995459914207458
      ],
      "min": [
        -1.0,
        -1.0,
        -1.0
      ],
      "type": "VEC3"
    },
    {
      "bufferView": 1,
      "byteOffset": 2673072,
      "componentType": 5126,
      "count": 48616,
      "max": [
        1.0,
        1.0
      ],
      "min": [
        0.0,
        0.0
      ],
      "type": "VEC2"
    },
    {
      "bufferView": 0,
      "byteOffset": 3263496,
      "componentType": 5125,
      "count": 116382,
      "type": "SCALAR"
    },
    {
      "bufferView": 2,
      "byteOffset": 9186000,
      "componentType": 5126,
      "count": 47751,
      "max": [
        15.746000289916992,
        -3.5239999294281006,
        4.817999839782715
      ],
      "min": [
        9.369999885559082,
        -9.050999641418457,
        -0.11599999666213989
      ],
      "type": "VEC3"
    },
    {
      "bufferView": 2,
      "byteOffset": 9759012,
      "componentType": 5126,
      "count": 47751,
      "max": [
        0.9999682903289795,
        0.9999532103538513,
        0.9997720122337341
      ],
      "min": [
        -1.0,
        -0.9999999403953552,
        -1.0
      ],
      "type": "VEC3"
    },
    {
      "bufferView": 1,
      "byteOffset": 3062000,
      "componentType": 5126,
      "count": 47751,
      "max": [
        1.0,
        1.0
      ],
      "min": [
        0.0,
        0.0
      ],
      "type": "VEC2"
    },
    {
      "bufferView": 0,
      "byteOffset": 3729024,
      "componentType": 5125,
      "count": 118428,
      "type": "SCALAR"
    },
    {
      "bufferView": 2,
      "byteOffset": 10332024,
      "componentType": 5126,
      "count": 48038,
      "max": [
        20.70199966430664,
        -5.751999855041504,
        4.513999938964844
      ],
      "min": [
        15.934000015258789,
        -9.859999656677246,
        -0.11299999803304672
      ],
      "type": "VEC3"
    },
    {
      "bufferView": 2,
      "byteOffset": 10908480,
      "componentType": 5126,
      "count": 48038,
      "max": [
        1.0,
        1.0,
        0.9999009966850281
      ],
      "min": [
        -1.0,
        -0.999994158744812,
        -1.0
      ],
      "type": "VEC3"
    },
    {
      "bufferView": 1,
      "byteOffset": 3444008,
      "componentType": 5126,
      "count": 48038,
      "max": [
        1.0,
        1.0
      ],
      "min": [
        0.0,
        0.0
      ],
      "type": "VEC2"
    },
    {
      "bufferView": 0,
      "byteOffset": 4202736,
      "componentType": 5125,
      "count": 117102,
      "type": "SCALAR"
    },
    {
      "bufferView": 2,
      "byteOffset": 11484936,
      "componentType": 5126,
      "count": 47923,
      "max": [
        26.608999252319336,
        -6.340000152587891,
        6.045000076293945
      ],
      "min": [
        21.131999969482422,
        -11.211999893188477,
        -0.05999999865889549
      ],
      "type": "VEC3"
    },
    {
      "bufferView": 2,
      "byteOffset": 12060012,
      "componentType": 5126,
      "count": 47923,
      "max": [
        0.9999999403953552,
        1.0,
        0.9997554421424866
      ],
      "min": [
        -0.999895453453064,
        -1.0,
        -1.0
      ],
      "type": "VEC3"
    },
    {
      "bufferView": 1,
      "byteOffset": 3828312,
      "componentType": 5126,
      "count": 47923,
      "max": [
        1.0,
        1.0
      ],
      "min": [
        0.0,
        0.0
      ],
      "type": "VEC2"
    },
    {
      "bufferView": 0,
      "byteOffset": 4671144,
      "componentType": 5125,
      "count": 115146,
      "type": "SCALAR"
    },
    {
      "bufferView": 2,
      "byteOffset": 12635088,
      "componentType": 5126,
      "count": 47789,
      "max": [
        6.920000076293945,
        -11.229999542236328,
        3.749000072479248
      ],
      "min": [
        2.8350000381469727,
        -15.98900032043457,
        -0.061000000685453415
      ],
      "type": "VEC3"
    },
    {
      "bufferView": 2,
      "byteOffset": 13208556,
      "componentType": 5126,
      "count": 47789,
      "max": [
        0.9996689558029175,
        0.9999499917030334,
        0.9999523758888245
      ],
      "min": [
        -1.0,
        -0.9999618530273438,
        -1.0
      ],
      "type": "VEC3"
    },
    {
      "bufferView": 1,
      "byteOffset": 4211696,
      "componentType": 5126,
      "count": 47789,
      "max": [
        1.0,
        1.0
      ],
      "min": [
        0.0,
        0.0
      ],
      "type": "VEC2"
    },
    {
      "bufferView": 0,
      "byteOffset": 5131728,
      "componentType": 5125,
      "count": 117366,
      "type": "SCALAR"
    },
    {
      "bufferView": 2,
      "byteOffset": 13782024,
      "componentType": 5126,
      "count": 47283,
      "max": [
        16.14699935913086,
        -8.657999992370605,
        5.781000137329102
      ],
      "min": [
        10.746000289916992,
        -15.032999992370605,
        -0.07900000363588333
      ],
      "type": "VEC3"
    },
    {
      "bufferView": 2,
      "byteOffset": 14349420,
      "componentType": 5126,
      "count": 47283,
      "max": [
        0.9999909996986389,
        1.0,
        0.9986162781715393
      ],
      "min": [
        -0.9998745322227478,
        -1.0,
        -1.0
      ],
      "type": "VEC3"
    },
    {
      "bufferView": 1,
      "byteOffset": 4594008,
      "componentType": 5126,
      "count": 47283,
      "max": [
        1.0,
        1.0
      ],
      "min": [
        0.0,
        0.0
      ],
      "type": "VEC2"
    },
    {
      "bufferView": 0,
      "byteOffset": 5601192,
      "componentType": 5125,
      "count": 115494,
      "type": "SCALAR"
    },
    {
      "bufferView": 2,
      "byteOffset": 14916816,
      "componentType": 5126,
      "count": 48081,
      "max": [
        20.503999710083008,
        -9.937999725341797,
        5.2179999351501465
      ],
      "min": [
        14.652000427246094,
        -13.852999687194824,
        -0.0430000014603138
      ],
      "type": "VEC3"
    },
    {
      "bufferView": 2,
      "byteOffset": 15493788,
      "componentType": 5126,
      "count": 48081,
      "max": [
        1.0,
        0.9997824430465698,
        0.9997375011444092
      ],
      "min": [
        -0.9996498227119446,
        -0.9999315738677979,
        -1.0
      ],
      "type": "VEC3"
    },
    {
      "bufferView": 1,
      "byteOffset": 4972272,
      "componentType": 5126,
      "count": 48081,
      "max": [
        1.0,
        1.0
      ],
      "min": [
        0.0,
        0.0
      ],
      "type": "VEC2"
    },
    {
      "bufferView": 0,
      "byteOffset": 6063168,
      "componentType": 5125,
      "count": 116394,
      "type": "SCALAR"
    },
    {
      "bufferView": 2,
      "byteOffset": 16070760,
      "componentType": 5126,
      "count": 47794,
      "max": [
        27.224000930786133,
        -9.559000015258789,
        4.395999908447266
      ],
      "min": [
        21.09000015258789,
        -14.131999969482422,
        -0.0989999994635582
      ],
      "type": "VEC3"
    },
    {
      "bufferView": 2,
      "byteOffset": 16644288,
      "componentType": 5126,
      "count": 47794,
      "max": [
        0.9998080134391785,
        0.9999341368675232,
        1.0
      ],
      "min": [
        -0.9998540282249451,
        -0.9999446868896484,
        -1.0
      ],
      "type": "VEC3"
    },
    {
      "bufferView": 1,
      "byteOffset": 5356920,
      "componentType": 5126,
      "count": 47794,
      "max": [
        1.0,
        1.0
      ],
      "min": [
        0.0,
        0.0
      ],
      "type": "VEC2"
    },
    {
      "bufferView": 0,
      "byteOffset": 6528744,
      "componentType": 5125,
      "count": 116622,
      "type": "SCALAR"
    },
    {
      "bufferView": 2,
      "byteOffset": 17217816,
      "componentType": 5126,
      "count": 47612,
      "max": [
        7.083000183105469,
        -16.106000900268555,
        4.328999996185303
      ],
      "min": [
        1.6469999551773071,
        -20.944000244140625,
        -0.020999999716877937
      ],
      "type": "VEC3"
    },
    {
      "bufferView": 2,
      "byteOffset": 17789160,
      "componentType": 5126,
      "count": 47612,
      "max": [
        0.9998197555541992,
        0.9999904632568359,
        0.9992955327033997
      ],
      "min": [
        -1.0,
        -0.9998056888580322,
        -1.0
      ],
      "type": "VEC3"
    },
    {
      "bufferView": 1,
      "byteOffset": 5739272,
      "componentType": 5126,
      "count": 47612,
      "max": [
        1.0,
        1.0
      ],
      "min": [
        0.0,
        0.0
      ],
      "type": "VEC2"
    },
    {
      "bufferView": 0,
      "byteOffset": 6995232,
      "componentType": 5125,
      "count": 115290,
      "type": "SCALAR"
    }
  ],
  "asset": {
    "extras": {
      "author": "Sereib (https://sketchfab.com/Sereib)",
      "license": "CC-BY-4.0 (http://creativecommons.org/licenses/by/4.0/)",
      "source": "https://sketchfab.com/3d-models/oak-forest-tree-pack-89bc56b885bb4227a2ff9115d306abd6",
      "title": "Oak Forest (Tree Pack)"
    },
    "generator": "Sketchfab-15.50.0",
    "version": "2.0"
  },
  "bufferViews": [
    {
      "buffer": 0,
      "byteLength": 7456392,
      "name": "floatBufferViews",
      "target": 34963
    },
    {
      "buffer": 0,
      "byteLength": 6120168,
      "byteOffset": 7456392,
      "byteStride": 8,
      "name": "floatBufferViews",
      "target": 34962
    },
    {
      "buffer": 0,
      "byteLength": 18360504,
      "byteOffset": 13576560,
      "byteStride": 12,
      "name": "floatBufferViews",
      "target": 34962
    }
  ],
  "buffers": [
    {
      "byteLength": 31937064,
      "uri": "scene.bin"
    }
  ],
  "images": [
    {
      "uri": "textures/nature_bark_pear_01_l_0001_baseColor.jpeg"
    }
  ],
  "materials": [
    {
      "doubleSided": true,
      "name": "nature_bark_pear_01_l_0001",
      "pbrMetallicRoughness": {
        "baseColorTexture": {
          "index": 0
        },
        "metallicFactor": 0.0,
        "roughnessFactor": 0.8810792884997279
      }
    }
  ],
  "meshes": [
    {
      "name": "Object_0",
      "primitives": [
        {
          "attributes": {
            "NORMAL": 1,
            "POSITION": 0,
            "TEXCOORD_0": 2
          },
          "indices": 3,
          "material": 0,
          "mode": 4
        }
      ]
    },
    {
      "name": "Object_1",
      "primitives": [
        {
          "attributes": {
            "NORMAL": 5,
            "POSITION": 4,
            "TEXCOORD_0": 6
          },
          "indices": 7,
          "material": 0,
          "mode": 4
        }
      ]
    },
    {
      "name": "Object_2",
      "primitives": [
        {
          "attributes": {
            "NORMAL": 9,
            "POSITION": 8,
            "TEXCOORD_0": 10
          },
          "indices": 11,
          "material": 0,
          "mode": 4
        }
      ]
    },
    {
      "name": "Object_3",
      "primitives": [
        {
          "attributes": {
            "NORMAL": 13,
            "POSITION": 12,
            "TEXCOORD_0": 14
          },
          "indices": 15,
          "material": 0,
          "mode": 4
        }
      ]
    },
    {
      "name": "Object_4",
      "primitives": [
        {
          "attributes": {
            "NORMAL": 17,
            "POSITION": 16,
            "TEXCOORD_0": 18
          },
          "indices": 19,
          "material": 0,
          "mode": 4
        }
      ]
    },
    {
      "name": "Object_5",
      "primitives": [
        {
          "attributes": {
            "NORMAL": 21,
            "POSITION": 20,
            "TEXCOORD_0": 22
          },
          "indices": 23,
          "material": 0,
          "mode": 4
        }
      ]
    },
    {
      "name": "Object_6",
      "primitives": [
        {
          "attributes": {
            "NORMAL": 25,
            "POSITION": 24,
            "TEXCOORD_0": 26
          },
          "indices": 27,
          "material": 0,
          "mode": 4
        }
      ]
    },
    {
      "name": "Object_7",
      "primitives": [
        {
          "attributes": {
            "NORMAL": 29,
            "POSITION": 28,
            "TEXCOORD_0": 30
          },
          "indices": 31,
          "material": 0,
          "mode": 4
        }
      ]
    },
    {
      "name": "Object_8",
      "primitives": [
        {
          "attributes": {
            "NORMAL": 33,
            "POSITION": 32,
            "TEXCOORD_0": 34
          },
          "indices": 35,
          "material": 0,
          "mode": 4
        }
      ]
    },
    {
      "name": "Object_9",
      "primitives": [
        {
          "attributes": {
            "NORMAL": 37,
            "POSITION": 36,
            "TEXCOORD_0": 38
          },
          "indices": 39,
          "material": 0,
          "mode": 4
        }
      ]
    },
    {
      "name": "Object_10",
      "primitives": [
        {
          "attributes": {
            "NORMAL": 41,
            "POSITION": 40,
            "TEXCOORD_0": 42
          },
          "indices": 43,
          "material": 0,
          "mode": 4
        }
      ]
    },
    {
      "name": "Object_11",
      "primitives": [
        {
          "attributes": {
            "NORMAL": 45,
            "POSITION": 44,
            "TEXCOORD_0": 46
          },
          "indices": 47,
          "material": 0,
          "mode": 4
        }
      ]
    },
    {
      "name": "Object_12",
      "primitives": [
        {
          "attributes": {
            "NORMAL": 49,
            "POSITION": 48,
            "TEXCOORD_0": 50
          },
          "indices": 51,
          "material": 0,
          "mode": 4
        }
      ]
    },
    {
      "name": "Object_13",
      "primitives": [
        {
          "attributes": {
            "NORMAL": 53,
            "POSITION": 52,
            "TEXCOORD_0": 54
          },
          "indices": 55,
          "material": 0,
          "mode": 4
        }
      ]
    },
    {
      "name": "Object_14",
      "primitives": [
        {
          "attributes": {
            "NORMAL": 57,
            "POSITION": 56,
            "TEXCOORD_0": 58
          },
          "indices": 59,
          "material": 0,
          "mode": 4
        }
      ]
    },
    {
      "name": "Object_15",
      "primitives": [
        {
          "attributes": {
            "NORMAL": 61,
            "POSITION": 60,
            "TEXCOORD_0": 62
          },
          "indices": 63,
          "material": 0,
          "mode": 4
        }
      ]
    }
  ],
  "nodes": [
    {
      "children": [
        1
      ],
      "matrix": [
        1.0,
        0.0,
        0.0,
        0.0,
        0.0,
        2.220446049250313e-16,
        -1.0,
        0.0,
        0.0,
        1.0,
        2.220446049250313e-16,
        0.0,
        0.0,
        0.0,
        0.0,
        1.0
      ],
      "name": "Sketchfab_model"
    },
    {
      "children": [
        2,
        3,
        4,
        5,
        6,
        7,
        8,
        9,
        10,
        11,
        12,
        13,
        14,
        15,
        16,
        17
      ],
      "name": "oak.obj.cleaner.materialmerger.gles"
    },
    {
      "mesh": 0,
      "name": "Object_2"
    },
    {
      "mesh": 1,
      "name": "Object_3"
    },
    {
      "mesh": 2,
      "name": "Object_4"
    },
    {
      "mesh": 3,
      "name": "Object_5"
    },
    {
      "mesh": 4,
      "name": "Object_6"
    },
    {
      "mesh": 5,
      "name": "Object_7"
    },
    {
      "mesh": 6,
      "name": "Object_8"
    },
    {
      "mesh": 7,
      "name": "Object_9"
    },
    {
      "mesh": 8,
      "name": "Object_10"
    },
    {
      "mesh": 9,
      "name": "Object_11"
    },
    {
      "mesh": 10,
      "name": "Object_12"
    },
    {
      "mesh": 11,
      "name": "Object_13"
    },
    {
      "mesh": 12,
      "name": "Object_14"
    },
    {
      "mesh": 13,
      "name": "Object_15"
    },
    {
      "mesh": 14,
      "name": "Object_16"
    },
    {
      "mesh": 15,
      "name": "Object_17"
    }
  ],
  "samplers": [
    {
      "magFilter": 9729,
      "minFilter": 9987,
      "wrapS": 10497,
      "wrapT": 10497
    }
  ],
  "scene": 0,
  "scenes": [
    {
      "name": "Sketchfab_Scene",
      "nodes": [
        0
      ]
    }
  ],
  "textures": [
    {
      "sampler": 0,
      "source": 0
    }
  ]
}
